<?xml version="1.0" encoding="utf-8"?>
<!-- Generator: Adobe Illustrator 26.0.0, SVG Export Plug-In . SVG Version: 6.00 Build 0)  -->
<svg version="1.1" id="Layer_1" xmlns="http://www.w3.org/2000/svg" xmlns:xlink="http://www.w3.org/1999/xlink" x="0px" y="0px"
	 viewBox="0 0 2430 635.3" style="enable-background:new 0 0 2430 635.3;" xml:space="preserve">
<style type="text/css">
	.st0{fill-rule:evenodd;clip-rule:evenodd;fill:#F76D2B;stroke:#231F20;stroke-miterlimit:10;}
	.st1{fill:#58595B;}
</style>
<path class="st0" d="M2361,175.8c-725.1-91.8-776-326-1586.1-5c0,0-491.9-6.7-702,169.3C627.9,60.1,1127,516.6,2361,175.8
	L2361,175.8z M897.2,187.1c204.2-78.9,344.5-129.4,501.8-138.5c193-11.2,392.8,47.1,575.2,94.4C1890.2,325,1070.5,198.2,897.2,187.1
	z"/>
<g>
	<path class="st0" d="M2390.9,181.7c-15.4,13.8-32,25.2-32.9,41.8c18.4,29.6,2.1,61.9,2.1,61.9c-6.1-60.5-36.3-28-91.1-22.2
		c101.3,32.3,141,110.4,143.1,177.1c-46.1-148.7-281.4-158.1-437.6-161.9C1974.6,278.4,2272.8,234.9,2390.9,181.7z"/>
	<path class="st0" d="M17.9,489.7c5.5-40.9,27.5-96.7,87.5-135.9c-12.6,11.3-37.2,46.2-38.7,63.6c121.8-80.4,161.6-91.6,216.9-109.9
		c-14.3-3.4-44.8-5.7-80.6-0.9c26.5-9.9,203.4-49.8,370.2-44.7C573.2,262,254.8,284,17.9,489.7z"/>
</g>
<path class="st1" d="M206.4,618.5l45.2-195.3h58.1l-33.2,143.8h97.3l-12,51.4H206.4z"/>
<path class="st1" d="M483.4,423.3l-28.1,121.1c-2.3,12.2-2.8,19-1.6,20.5c1.7,2.2,10.1,3.3,25.3,3.3H508l33.5-144.9h59.4
	l-45.2,195.3h-88.1c-24.2,0-39.9-1.7-47.1-5c-12.9-2.2-21.2-8.8-25-19.9c-4.6-9.6-4.3-26,1-49.2l28.1-121.1L483.4,423.3L483.4,423.3
	z"/>
<path class="st1" d="M573.1,620.2l12-51.4c19.2,0,34.8-4.2,46.8-12.7c12.2-10.3,19.8-21.4,22.7-33.2c3.2-14,0.8-25.8-7-35.4
	c-8-9.6-21.6-14.4-40.8-14.4l11.7-50.9c46.8,0,73,13.6,78.7,40.9c21.7-27.3,54.1-40.9,97.3-40.9l-11.7,50.9c-9.1,0-17.4,1.2-25,3.6
	c-7.6,2.4-14.7,6-21.5,10.8c-11.8,9.6-19.3,21.4-22.4,35.4c-2.7,11.8-0.5,22.9,6.6,33.2c8,8.5,21.5,12.7,40.4,12.7l-12,51.4
	c-48.2,0-74-12.9-77.4-38.7C655.5,607.3,622.6,620.2,573.1,620.2z"/>
<path class="st1" d="M871.3,423.3l-28.1,121.1c-2.3,12.2-2.8,19-1.6,20.5c1.7,2.2,10.1,3.3,25.3,3.3H896l33.5-144.9h59.4
	l-45.2,195.3h-88.1c-24.2,0-39.9-1.7-47.1-5c-12.8-2.2-21.2-8.8-25-19.9c-4.6-9.6-4.3-26,1-49.2l28.1-121.1L871.3,423.3L871.3,423.3
	z"/>
<path class="st1" d="M961.3,618.5l45.2-195.3h105.2c21.5,0,37.2,6.8,47.1,20.5c8.2,10.7,10.4,24.5,6.6,41.5
	c-5.1,21.8-16.6,35.2-34.8,40.4c14.9,16.6,19.4,38.2,13.3,64.7l-6.6,28.2h-57.8l7.3-31c3.4-14.4,1.7-25.8-5.1-34.3
	c-5.7-8.1-12-12.2-18.9-12.2h-36l-18,77.4L961.3,618.5L961.3,618.5z M1042.8,470.8l-5.7,24.3h57.8c6.9-0.7,11.9-5.2,14.8-13.3
	c0.4-7.4-2.6-11.1-9.2-11.1H1042.8z"/>
<path class="st1" d="M1294.6,527.3l-21.2,91.3h-59.4l20.8-90.7l-34.4-104.5h57.5l20.5,51.4l43-51.4h55.9L1294.6,527.3z"/>
<path class="st1" d="M1563.8,618.5c-37.5,0-64.2-11.2-80.2-33.7c-14.7-18.1-19.2-40.4-13.3-66.9c6.3-26.2,21.1-47.8,44.2-64.7
	c25.9-19.9,57.4-29.9,94.4-29.9h59.4l-10.4,44.2h-59.4c-9.9,1.1-18.7,3.1-26.4,6.1c-7.7,3-14.6,6.6-20.7,11.1
	c-12,10.7-19.4,21.8-22.1,33.2c-2.9,13.3-0.8,24.9,6.3,34.8c8.6,8.8,22,13.3,40.1,13.3h59.4l-12,52.5H1563.8z"/>
<path class="st1" d="M1832.9,423.3l41.1,195.3h-233.1l131.7-195.3L1832.9,423.3L1832.9,423.3z M1788.7,479.7l-57.5,90.2h73.9
	L1788.7,479.7z"/>
<path class="st1" d="M1892.3,618.5l45.2-195.3h105.2c21.5,0,37.2,6.8,47.1,20.5c8.2,10.7,10.4,24.5,6.6,41.5
	c-5.1,21.8-16.6,35.2-34.8,40.4c14.9,16.6,19.4,38.2,13.3,64.7l-6.6,28.2h-57.8l7.3-31c3.4-14.4,1.7-25.8-5.1-34.3
	c-5.7-8.1-12-12.2-18.9-12.2h-36l-18,77.4L1892.3,618.5L1892.3,618.5z M1973.8,470.8l-5.7,24.3h57.8c6.9-0.7,11.9-5.2,14.8-13.3
	c0.4-7.4-2.6-11.1-9.2-11.1H1973.8z"/>
<path class="st1" d="M2249.6,600.8c-13.3,11.8-30.5,17.7-51.8,17.7h-111.5l11.4-49.2h83.1c22.5,0,34.6-3.7,36.3-11.1
	c1.3-4.4-6.7-7.9-24-10.5c-10.5,0-21.3-0.7-32.2-2.2c-16.2-1.5-28.8-8.1-37.6-19.9c-7.4-13.3-9.4-26.9-6-40.9
	c1.9-8.5,5.1-16.4,9.5-23.8c4.4-7.4,9.8-13.8,16.1-19.4c6.3-5.5,13.6-10,21.8-13.3c8.2-3.3,16.9-5,26.2-5h116.6l-11.1,47.6H2199
	c-13.9,0-21.9,4.6-24,13.8c-1.7,7,4.8,10.5,19.6,10.5h17.7c21.7,0,38.9,6.3,51.5,18.8c12.4,11.1,16.5,25.8,12.3,44.2
	C2272.1,575.9,2263.3,590.1,2249.6,600.8z"/>
</svg>
