<svg id="Layer_1" data-name="Layer 1" xmlns="http://www.w3.org/2000/svg" viewBox="0 0 2430 529.09"><defs><style>.cls-1{fill:#f76d2b;stroke:#231f20;stroke-miterlimit:10;fill-rule:evenodd;}.cls-2{fill:#424242;}</style></defs><path class="cls-1" d="M2361,175.81c-725.14-91.8-776-326-1586.07-5,0,0-491.92-6.7-702,169.34,555-280,1054.06,176.51,2288-164.3ZM897.2,187.1C1101.35,108.2,1241.73,57.76,1399,48.62,1592,37.4,1791.81,95.69,1974.16,143,1890.15,325,1070.54,198.25,897.2,187.1Z"/><path class="cls-1" d="M2390.94,181.68c-15.36,13.8-32,25.24-32.88,41.82,18.37,29.64,2.08,61.91,2.08,61.91-6.09-60.49-36.3-28-91-22.21,101.27,32.28,141,110.36,143,177.08-46.13-148.68-281.42-158-437.57-161.89C1974.57,278.39,2272.84,234.86,2390.94,181.68Z"/><path class="cls-1" d="M17.86,489.69c5.53-40.85,27.46-96.67,87.49-135.85-12.6,11.28-37.21,46.22-38.65,63.57C188.46,337,228.25,325.85,283.6,307.53c-14.26-3.39-44.76-5.68-80.56-.87,26.48-9.85,203.44-49.8,370.17-44.68C573.21,262,254.84,284,17.86,489.69Z"/><path class="cls-2" d="M219.37,448.48H281.8q7.13,0,9-8.54,1.5-6.56-5.44-6.56H222.94l6.56-28.23h62.61a46.75,46.75,0,0,1,16.4,2.62,34.07,34.07,0,0,1,12.28,7.88q8.25,11.16,4.88,24.29-2.64,12.15-14.25,22.65a25.61,25.61,0,0,1,4.5,22q-3,13.14-16.5,23.31A50.16,50.16,0,0,1,265.11,521H202.69Zm25.69,37.09h28.12q7.11,0,9-8.54,2.07-8.85-4.87-8.86H249Z"/><path class="cls-2" d="M379.65,405.15,363,477q-2.07,10.85-.94,12.15,1.5,2,15,2h17.25l19.87-86h35.24L422.58,521h-52.3q-21.55,0-27.93-2.95-11.44-2-14.81-11.82-4.12-8.53.56-29.22l16.69-71.88Z"/><path class="cls-2" d="M515.75,466.86,503.19,521H468l12.37-53.83-20.43-62H494l12.18,30.52,25.5-30.52h33.18Z"/><path class="cls-2" d="M695.72,498.86a45.43,45.43,0,0,1-10.78,11.66,50.39,50.39,0,0,1-15,7.71A59.69,59.69,0,0,1,651.29,521h-45l6.93-30.53H652.6a5.07,5.07,0,0,0,2.62.66h1.88q8.25,0,9.93-7.22,2.63-10.5-8.81-18.71Q638,451.11,636.67,448.48q-11.07-11.82-6.19-31.84l2.62-11.49h34.12l-2.43,10.5q-2.44,11.16,9.37,19,10.5,7.88,16.87,13.13a46.38,46.38,0,0,1,9.19,9.52q6.18,7.56,1.68,26.59A46.75,46.75,0,0,1,695.72,498.86Z"/><path class="cls-2" d="M807.07,521H702.65l26.81-115.87H833.88l-5.81,24.94H758l-4.69,19.7h70.11l-5.62,24.95h-70.3l-4.31,19h70.11Z"/><path class="cls-2" d="M817.76,521l26.8-115.87h34.5l-19.69,85.34h57.74L910,521Z"/><path class="cls-2" d="M920.48,521l26.81-115.87h34.5L962.1,490.49h57.74L1012.72,521Z"/><path class="cls-2" d="M1080.77,521l26.8-115.87h34.5l-19.69,85.34h57.74L1173,521Z"/><path class="cls-2" d="M1245.17,405.15,1228.49,477q-2.07,10.85-.94,12.15,1.5,2,15,2h17.24l19.87-86h35.25L1288.1,521h-52.3q-21.57,0-27.94-2.95-11.43-2-14.81-11.82-4.12-8.53.57-29.22l16.68-71.88Z"/><path class="cls-2" d="M1298.41,522l7.12-30.52q17.06,0,27.75-7.55,10.86-9.19,13.49-19.7,2.82-12.47-4.12-21-7.12-8.52-24.18-8.53l6.93-30.2q41.63,0,46.68,24.29,19.31-24.28,57.74-24.29l-6.93,30.2a48.93,48.93,0,0,0-14.81,2.13,46,46,0,0,0-12.75,6.4,37,37,0,0,0-13.31,21,23.76,23.76,0,0,0,3.93,19.7q7.13,7.54,24,7.55L1402.83,522q-42.93,0-45.93-23Q1342.46,522,1298.41,522Z"/><path class="cls-2" d="M1475.37,405.15,1458.69,477q-2.07,10.85-.94,12.15,1.5,2,15,2H1490l19.87-86h35.24L1518.3,521H1466q-21.55,0-27.93-2.95-11.44-2-14.81-11.82-4.12-8.53.56-29.22l16.69-71.88Z"/><path class="cls-2" d="M1528.8,521l26.81-115.87H1618q19.13,0,27.94,12.14,7.3,9.52,3.93,24.62-4.5,19.38-20.62,24,13.31,14.78,7.88,38.41L1633.22,521h-34.31l4.31-18.38q3-12.81-3-20.35-5.06-7.23-11.24-7.23h-21.37l-10.69,46Zm48.37-87.64-3.38,14.44h34.31q6.18-.66,8.81-7.88.38-6.56-5.44-6.56Z"/><path class="cls-2" d="M1726.57,466.86,1714,521h-35.24l12.37-53.83-20.43-62h34.12L1717,435.67l25.5-30.52h33.18Z"/><path class="cls-2" d="M1886.29,521q-33.36,0-47.61-20-13.12-16.08-7.88-39.72,5.63-23.31,26.25-38.41,23.06-17.72,56-17.72h35.24l-6.18,26.26h-35.24a63,63,0,0,0-15.66,3.61,53.79,53.79,0,0,0-12.28,6.56q-10.68,9.53-13.12,19.7-2.62,11.82,3.75,20.68,7.68,7.88,23.81,7.88h35.24L1921.54,521Z"/><path class="cls-2" d="M2046,405.15,2070.38,521H1932l78.18-115.87Zm-26.24,33.48-34.12,53.5h43.87Z"/><path class="cls-2" d="M2081.25,521l26.81-115.87h62.43q19.11,0,27.93,12.14,7.3,9.52,3.94,24.62-4.5,19.38-20.63,24,13.32,14.78,7.88,38.41L2185.67,521h-34.3l4.31-18.38q3-12.81-3-20.35-5.07-7.23-11.25-7.23h-21.37l-10.69,46Zm48.37-87.64-3.37,14.44h34.3q6.19-.66,8.81-7.88.38-6.56-5.43-6.56Z"/><path class="cls-2" d="M2293.28,510.52q-11.82,10.5-30.75,10.5h-66.17l6.75-29.22h49.3q20.06,0,21.56-6.56,1.13-3.94-14.25-6.24a142.25,142.25,0,0,1-19.12-1.31q-14.45-1.31-22.31-11.82a32.69,32.69,0,0,1-3.56-24.29,47.36,47.36,0,0,1,5.62-14.11,47.89,47.89,0,0,1,9.56-11.49,45.14,45.14,0,0,1,12.94-7.88,41.11,41.11,0,0,1,15.56-3h69.17L2321,433.38h-57.74q-12.37,0-14.25,8.2-1.5,6.24,11.63,6.24h10.49q19.32,0,30.56,11.16,11.05,9.86,7.31,26.26A43.1,43.1,0,0,1,2293.28,510.52Z"/></svg>