<?xml version="1.0" encoding="utf-8"?>
<!-- Generator: Adobe Illustrator 26.0.0, SVG Export Plug-In . SVG Version: 6.00 Build 0)  -->
<svg version="1.1" id="Layer_1" xmlns="http://www.w3.org/2000/svg" xmlns:xlink="http://www.w3.org/1999/xlink" x="0px" y="0px"
	 viewBox="0 0 2430 635.34" style="enable-background:new 0 0 2430 635.34;" xml:space="preserve">
<style type="text/css">
	.st0{fill-rule:evenodd;clip-rule:evenodd;fill:#F76D2B;stroke:#231F20;stroke-miterlimit:10;}
	.st1{fill:#FFFFFF;}
</style>
<path class="st0" d="M2360.99,175.81c-725.14-91.8-776.01-326.03-1586.07-5.04c0,0-491.92-6.71-701.97,169.34
	C627.92,60.14,1127.01,516.62,2360.99,175.81L2360.99,175.81z M897.2,187.1c204.16-78.9,344.53-129.35,501.79-138.49
	c192.99-11.22,392.82,47.07,575.18,94.36C1890.15,325.03,1070.54,198.25,897.2,187.1z"/>
<g>
	<path class="st0" d="M2390.94,181.68c-15.36,13.8-32.02,25.24-32.88,41.82c18.37,29.64,2.08,61.91,2.08,61.91
		c-6.09-60.48-36.3-27.96-91.06-22.21c101.28,32.29,141,110.36,143.06,177.09c-46.13-148.68-281.42-158.06-437.57-161.89
		C1974.57,278.39,2272.84,234.86,2390.94,181.68z"/>
	<path class="st0" d="M17.86,489.69c5.53-40.86,27.46-96.67,87.49-135.85c-12.61,11.28-37.21,46.21-38.65,63.57
		c121.75-80.4,161.55-91.57,216.89-109.88c-14.26-3.39-44.76-5.68-80.56-0.88c26.48-9.85,203.45-49.8,370.17-44.68
		C573.21,261.98,254.84,284.04,17.86,489.69z"/>
</g>
<path class="st1" d="M206.37,618.53l45.17-195.26h58.12L276.5,567.09h97.3l-12,51.44H206.37z"/>
<path class="st1" d="M483.41,423.27l-28.12,121.14c-2.32,12.17-2.84,19-1.58,20.47c1.68,2.21,10.11,3.32,25.27,3.32h29.06
	l33.49-144.92h59.39l-45.17,195.26h-88.13c-24.22,0-39.91-1.66-47.07-4.98c-12.85-2.21-21.17-8.85-24.96-19.91
	c-4.63-9.58-4.32-26,0.95-49.23l28.12-121.14H483.41z"/>
<path class="st1" d="M573.12,620.19l12-51.44c19.16,0,34.75-4.23,46.75-12.72c12.21-10.32,19.79-21.38,22.74-33.19
	c3.16-14.01,0.84-25.81-6.95-35.4c-8.01-9.58-21.59-14.38-40.75-14.38l11.69-50.89c46.75,0,72.97,13.65,78.66,40.93
	c21.69-27.29,54.12-40.93,97.3-40.93l-11.69,50.89c-9.06,0-17.37,1.2-24.96,3.59c-7.58,2.4-14.74,6-21.48,10.79
	c-11.8,9.59-19.27,21.39-22.43,35.4c-2.74,11.81-0.53,22.87,6.63,33.19c8,8.49,21.48,12.72,40.44,12.72l-12,51.44
	c-48.23,0-74.03-12.9-77.39-38.72C655.46,607.28,622.61,620.19,573.12,620.19z"/>
<path class="st1" d="M871.32,423.27l-28.12,121.14c-2.32,12.17-2.84,19-1.58,20.47c1.68,2.21,10.11,3.32,25.27,3.32h29.06
	l33.49-144.92h59.39l-45.17,195.26h-88.13c-24.22,0-39.91-1.66-47.07-4.98c-12.85-2.21-21.17-8.85-24.96-19.91
	c-4.63-9.58-4.32-26,0.95-49.23l28.12-121.14H871.32z"/>
<path class="st1" d="M961.35,618.53l45.17-195.26h105.19c21.48,0,37.17,6.83,47.07,20.47c8.21,10.7,10.42,24.53,6.63,41.48
	c-5.05,21.76-16.64,35.22-34.75,40.38c14.95,16.59,19.37,38.17,13.27,64.72l-6.63,28.21h-57.81l7.27-30.98
	c3.37-14.38,1.68-25.81-5.05-34.29c-5.69-8.11-12-12.17-18.95-12.17h-36.01l-18.01,77.44H961.35z M1042.85,470.84l-5.69,24.34h57.81
	c6.95-0.73,11.9-5.16,14.85-13.28c0.42-7.37-2.64-11.06-9.16-11.06H1042.85z"/>
<path class="st1" d="M1294.62,527.26l-21.17,91.27h-59.39l20.85-90.71l-34.43-104.54h57.49l20.53,51.44l42.96-51.44h55.91
	L1294.62,527.26z"/>
<path class="st1" d="M1563.77,618.53c-37.49,0-64.24-11.24-80.24-33.74c-14.74-18.06-19.17-40.38-13.27-66.93
	c6.32-26.18,21.06-47.75,44.23-64.72c25.9-19.91,57.39-29.87,94.45-29.87h59.39l-10.42,44.25h-59.39
	c-9.9,1.11-18.69,3.14-26.38,6.08c-7.69,2.96-14.59,6.64-20.69,11.06c-12,10.7-19.38,21.76-22.11,33.19
	c-2.95,13.28-0.84,24.89,6.32,34.85c8.63,8.85,22,13.28,40.12,13.28h59.39l-12,52.55H1563.77z"/>
<path class="st1" d="M1832.91,423.27l41.07,195.26h-233.13l131.73-195.26H1832.91z M1788.68,479.69l-57.49,90.16h73.92
	L1788.68,479.69z"/>
<path class="st1" d="M1892.29,618.53l45.17-195.26h105.19c21.48,0,37.17,6.83,47.07,20.47c8.21,10.7,10.42,24.53,6.63,41.48
	c-5.05,21.76-16.64,35.22-34.75,40.38c14.95,16.59,19.37,38.17,13.27,64.72l-6.63,28.21h-57.81l7.27-30.98
	c3.37-14.38,1.68-25.81-5.06-34.29c-5.69-8.11-12-12.17-18.95-12.17h-36.01l-18,77.44H1892.29z M1973.8,470.84l-5.69,24.34h57.81
	c6.95-0.73,11.89-5.16,14.85-13.28c0.42-7.37-2.64-11.06-9.16-11.06H1973.8z"/>
<path class="st1" d="M2249.57,600.83c-13.27,11.81-30.54,17.7-51.81,17.7h-111.51l11.37-49.23h83.08c22.53,0,34.64-3.68,36.33-11.06
	c1.26-4.43-6.74-7.93-24.01-10.51c-10.53,0-21.27-0.73-32.22-2.21c-16.22-1.47-28.75-8.11-37.59-19.91
	c-7.37-13.28-9.37-26.91-6-40.93c1.9-8.48,5.06-16.4,9.48-23.78c4.42-7.37,9.79-13.83,16.11-19.36c6.32-5.53,13.58-9.96,21.8-13.28
	c8.21-3.32,16.95-4.98,26.22-4.98h116.57l-11.06,47.57h-97.3c-13.9,0-21.9,4.62-24.01,13.83c-1.69,7.01,4.84,10.51,19.59,10.51
	h17.69c21.69,0,38.86,6.27,51.49,18.81c12.42,11.06,16.53,25.82,12.32,44.25C2272.11,575.94,2263.26,590.14,2249.57,600.83z"/>
</svg>
